<svg version="1.2" baseProfile="tiny-ps" xmlns="http://www.w3.org/2000/svg" viewBox="0 0 128 131" width="47" height="48"><title>Instagram-svg</title><defs><radialGradient id="grd1" gradientUnits="userSpaceOnUse"  cx="34.5" cy="141" r="128.8"><stop offset="0" stop-color="#ffdd55"  /><stop offset=".1" stop-color="#ffdd55"  /><stop offset=".5" stop-color="#ff543e"  /><stop offset="1" stop-color="#c837ab"  /></radialGradient><radialGradient id="grd2" gradientUnits="userSpaceOnUse"  cx="-21.8" cy="10.4" r="57.6"><stop offset="0" stop-color="#3771c8"  /><stop offset=".1" stop-color="#3771c8"  /><stop offset="1" stop-color="#6600ff" stop-opacity="0" /></radialGradient></defs><style>tspan { white-space:pre }.s0 { fill: url(#grd1) } .s1 { fill: url(#grd2) } .s2 { fill: #ffffff } </style><path class="s0" d="m86.19 1c15.54 0.03 16.14 0.16 19.18 0.6c6.27 0.9 11.53 3.4 15.83 7.51c2.41 2.32 4.07 4.59 5.56 7.62c1.82 3.71 2.72 7.22 3.13 12.44c0.09 1.12 0.13 18.94 0.13 36.78c0 17.83-0.04 35.69-0.13 36.81c-0.41 5.14-1.3 8.68-3.06 12.32c-0.86 1.78-1.91 3.46-3.13 5.01c-1.22 1.55-2.61 2.97-4.14 4.22c-1.53 1.25-3.19 2.33-4.95 3.22c-1.76 0.89-3.62 1.59-5.53 2.08c-2.83 0.73-5.38 1.07-9.78 1.28c-1.57 0.08-17.99 0.1-34.41 0.1c-16.42 0-32.83-0.05-34.44-0.12c-3.8-0.18-6.76-0.56-9.44-1.25c-7.74-2-14.31-7.36-17.75-14.5c-1.8-3.73-2.65-7.14-3.1-12.56c-0.13-1.54-0.16-9.47-0.16-36.59c0-9.14-0.01-15.95 0-21.13c0.03-15.53 0.15-16.15 0.59-19.19c0.91-6.26 3.41-11.53 7.53-15.81c2.27-2.35 4.56-4.02 7.47-5.47c3.78-1.88 7.24-2.76 12.81-3.22c1.54-0.13 9.48-0.16 36.62-0.16h21.16z" /><path class="s1" d="m86.19 1c15.54 0.03 16.14 0.16 19.18 0.6c6.27 0.9 11.53 3.4 15.83 7.51c2.41 2.32 4.07 4.59 5.56 7.62c1.82 3.71 2.72 7.22 3.13 12.44c0.09 1.12 0.13 18.94 0.13 36.78c0 17.83-0.04 35.69-0.13 36.81c-0.41 5.14-1.3 8.68-3.06 12.32c-0.86 1.78-1.91 3.46-3.13 5.01c-1.22 1.55-2.61 2.97-4.14 4.22c-1.53 1.25-3.19 2.33-4.95 3.22c-1.76 0.89-3.62 1.59-5.53 2.08c-2.83 0.73-5.38 1.07-9.78 1.28c-1.57 0.08-17.99 0.1-34.41 0.1c-16.42 0-32.83-0.05-34.44-0.12c-3.8-0.18-6.76-0.56-9.44-1.25c-7.74-2-14.31-7.36-17.75-14.5c-1.8-3.73-2.65-7.14-3.1-12.56c-0.13-1.54-0.16-9.47-0.16-36.59c0-9.14-0.01-15.95 0-21.13c0.03-15.53 0.15-16.15 0.59-19.19c0.91-6.26 3.41-11.53 7.53-15.81c2.27-2.35 4.56-4.02 7.47-5.47c3.78-1.88 7.24-2.76 12.81-3.22c1.54-0.13 9.48-0.16 36.62-0.16h21.16z" /><path fill-rule="evenodd" class="s2" d="m65 18c13.03 0 14.66 0.06 19.78 0.29c5.11 0.23 8.6 1.04 11.66 2.23c3.16 1.23 5.83 2.87 8.5 5.54c2.67 2.67 4.31 5.35 5.54 8.5c1.18 3.05 1.99 6.54 2.23 11.65c0.23 5.12 0.29 6.76 0.29 19.79c0 13.04-0.06 14.67-0.29 19.79c-0.24 5.11-1.05 8.6-2.23 11.65c-1.23 3.16-2.87 5.83-5.54 8.5c-2.67 2.67-5.34 4.31-8.5 5.54c-3.05 1.19-6.55 2-11.66 2.23c-5.12 0.23-6.75 0.29-19.79 0.29c-13.03 0-14.67-0.06-19.79-0.29c-5.11-0.23-8.6-1.04-11.65-2.23c-3.16-1.23-5.83-2.87-8.5-5.54c-2.67-2.67-4.31-5.35-5.54-8.5c-1.19-3.05-1.99-6.54-2.23-11.65c-0.23-5.12-0.29-6.75-0.29-19.79c0-13.04 0.06-14.67 0.29-19.79c0.23-5.11 1.04-8.6 2.23-11.65c1.23-3.16 2.87-5.83 5.54-8.5c2.67-2.67 5.35-4.31 8.5-5.54c3.05-1.19 6.54-2 11.65-2.23c5.12-0.23 6.76-0.29 19.79-0.29zm-4.3 8.64c-8.95 0.01-10.66 0.07-15.09 0.27c-4.68 0.22-7.22 1-8.91 1.66c-2.24 0.87-3.84 1.91-5.52 3.59c-1.68 1.68-2.72 3.28-3.59 5.52c-0.66 1.69-1.44 4.23-1.65 8.91c-0.23 5.06-0.28 6.57-0.28 19.39c0 12.82 0.05 14.34 0.28 19.4c0.21 4.68 1 7.22 1.65 8.91c0.87 2.24 1.91 3.84 3.59 5.52c1.68 1.68 3.28 2.72 5.52 3.59c1.69 0.66 4.23 1.44 8.91 1.65c5.06 0.23 6.58 0.28 19.4 0.28c12.82 0 14.34-0.05 19.4-0.28c4.68-0.21 7.22-0.99 8.91-1.65c2.24-0.87 3.84-1.91 5.52-3.59c1.68-1.68 2.72-3.27 3.59-5.51c0.66-1.69 1.44-4.23 1.65-8.91c0.23-5.06 0.28-6.58 0.28-19.39c0-12.81-0.05-14.33-0.28-19.39c-0.21-4.68-1-7.22-1.65-8.91c-0.87-2.24-1.91-3.84-3.59-5.52c-1.68-1.68-3.28-2.72-5.52-3.59c-1.69-0.66-4.23-1.44-8.91-1.65c-5.06-0.23-6.58-0.28-19.4-0.28c-1.6 0-3.03 0-4.31 0v-0.01zm29.93 7.98c3.18 0 5.76 2.58 5.76 5.76c0 2.33-1.4 4.43-3.55 5.32c-2.15 0.89-4.63 0.4-6.28-1.25c-1.65-1.65-2.14-4.12-1.25-6.28c0.89-2.15 2.99-3.56 5.32-3.56v0zm-25.62 6.73c13.61 0 24.65 11.04 24.65 24.65c0 13.61-11.03 24.64-24.65 24.64c-13.61 0-24.65-11.03-24.65-24.64c0-13.61 11.04-24.65 24.65-24.65h0zm0 8.65c-8.84 0-16 7.16-16 16c0 8.84 7.16 16 16 16c8.84 0 16-7.16 16-16c0-8.84-7.16-16-16-16z" /></svg>